<svg width="10" height="10" viewBox="0 0 10 10" fill="none" xmlns="http://www.w3.org/2000/svg">
<path d="M7.50039 8.33398L8.33372 8.33407C8.54205 8.33407 8.75039 8.25073 8.91705 8.08407C9.08372 7.9174 9.16705 7.70907 9.16705 7.50073L9.16705 3.33398M6.66705 0.833984H2.50039C2.29205 0.833984 2.08372 0.917318 1.91705 1.08398C1.75039 1.25065 1.66705 1.45898 1.66705 1.66732V2.91732M6.66705 0.833984V3.33398H9.16705M6.66705 0.833984L9.16705 3.33398" stroke="white" stroke-width="0.833333" stroke-linecap="round" stroke-linejoin="round"/>
<path d="M4.16705 8.33398V7.91732C4.16705 7.6963 4.25485 7.48434 4.41113 7.32806C4.56741 7.17178 4.77937 7.08398 5.00039 7.08398C5.2214 7.08398 5.43336 7.17178 5.58964 7.32806C5.74592 7.48434 5.83372 7.6963 5.83372 7.91732V8.33398C5.83372 8.555 5.74592 8.76696 5.58964 8.92324C5.43336 9.07952 5.2214 9.16732 5.00039 9.16732C4.77937 9.16732 4.56741 9.07952 4.41113 8.92324C4.25485 8.76696 4.16705 8.555 4.16705 8.33398Z" stroke="white" stroke-width="0.833333" stroke-linecap="round" stroke-linejoin="round"/>
<path d="M2.49974 8.33398V7.91732C2.49974 7.6963 2.41194 7.48434 2.25566 7.32806C2.09938 7.17178 1.88742 7.08398 1.6664 7.08398C1.44539 7.08398 1.23343 7.17178 1.07715 7.32806C0.920866 7.48434 0.833069 7.6963 0.833069 7.91732V8.33398C0.833069 8.555 0.920866 8.76696 1.07715 8.92324C1.23343 9.07952 1.44539 9.16732 1.6664 9.16732C1.88742 9.16732 2.09938 9.07952 2.25566 8.92324C2.41194 8.76696 2.49974 8.555 2.49974 8.33398Z" stroke="white" stroke-width="0.833333" stroke-linecap="round" stroke-linejoin="round"/>
<path d="M0.833069 7.91602V6.66602C0.833069 6.00297 1.09646 5.36709 1.5653 4.89825C2.03414 4.42941 2.67003 4.16602 3.33307 4.16602C3.99611 4.16602 4.63199 4.42941 5.10084 4.89825C5.56968 5.36709 5.83307 6.00297 5.83307 6.66602V7.91602" stroke="white" stroke-width="0.833333" stroke-linecap="round" stroke-linejoin="round"/>
</svg>
