<svg width="16" height="18" viewBox="0 0 16 18" fill="none" xmlns="http://www.w3.org/2000/svg">
<path fill-rule="evenodd" clip-rule="evenodd" d="M12.625 1.5C11.7275 1.5 11 2.22754 11 3.125C11 4.02246 11.7275 4.75 12.625 4.75C13.5225 4.75 14.25 4.02246 14.25 3.125C14.25 2.22754 13.5225 1.5 12.625 1.5ZM9.5 3.125C9.5 1.39911 10.8991 0 12.625 0C14.3509 0 15.75 1.39911 15.75 3.125C15.75 4.85089 14.3509 6.25 12.625 6.25C10.8991 6.25 9.5 4.85089 9.5 3.125Z" fill="#5F54F6"/>
<path fill-rule="evenodd" clip-rule="evenodd" d="M3.125 7.04297C2.22754 7.04297 1.5 7.77051 1.5 8.66797C1.5 9.56543 2.22754 10.293 3.125 10.293C4.02246 10.293 4.75 9.56543 4.75 8.66797C4.75 7.77051 4.02246 7.04297 3.125 7.04297ZM0 8.66797C0 6.94208 1.39911 5.54297 3.125 5.54297C4.85089 5.54297 6.25 6.94208 6.25 8.66797C6.25 10.3939 4.85089 11.793 3.125 11.793C1.39911 11.793 0 10.3939 0 8.66797Z" fill="#5F54F6"/>
<path fill-rule="evenodd" clip-rule="evenodd" d="M12.625 12.5859C11.7275 12.5859 11 13.3135 11 14.2109C11 15.1084 11.7275 15.8359 12.625 15.8359C13.5225 15.8359 14.25 15.1084 14.25 14.2109C14.25 13.3135 13.5225 12.5859 12.625 12.5859ZM9.5 14.2109C9.5 12.485 10.8991 11.0859 12.625 11.0859C14.3509 11.0859 15.75 12.485 15.75 14.2109C15.75 15.9368 14.3509 17.3359 12.625 17.3359C10.8991 17.3359 9.5 15.9368 9.5 14.2109Z" fill="#5F54F6"/>
<path fill-rule="evenodd" clip-rule="evenodd" d="M4.52741 9.4858C4.73596 9.12791 5.19514 9.00685 5.55302 9.2154L10.9601 12.3662C11.318 12.5748 11.4391 13.034 11.2305 13.3918C11.022 13.7497 10.5628 13.8708 10.2049 13.6622L4.79781 10.5114C4.43992 10.3029 4.31886 9.84368 4.52741 9.4858Z" fill="#5F54F6"/>
<path fill-rule="evenodd" clip-rule="evenodd" d="M11.2228 3.94241C11.4316 4.30016 11.3108 4.75942 10.9531 4.9682L5.55392 8.11903C5.19617 8.32781 4.73691 8.20704 4.52814 7.84929C4.31936 7.49154 4.44013 7.03228 4.79788 6.8235L10.197 3.67267C10.5548 3.46389 11.0141 3.58466 11.2228 3.94241Z" fill="#5F54F6"/>
</svg>
