<svg width="10" height="10" viewBox="0 0 10 10" fill="none" xmlns="http://www.w3.org/2000/svg">
<path d="M4.58303 1.66602H1.66635C1.44533 1.66602 1.23337 1.75381 1.07709 1.91009C0.920806 2.06638 0.833008 2.27834 0.833008 2.49935V8.33272C0.833008 8.55374 0.920806 8.7657 1.07709 8.92198C1.23337 9.07826 1.44533 9.16606 1.66635 9.16606H7.49972C7.72073 9.16606 7.93269 9.07826 8.08897 8.92198C8.24526 8.7657 8.33305 8.55374 8.33305 8.33272V5.41604" stroke="white" stroke-width="0.833338" stroke-linecap="round" stroke-linejoin="round"/>
<path d="M7.70803 1.04209C7.8738 0.876327 8.09862 0.783203 8.33304 0.783203C8.56746 0.783203 8.79228 0.876327 8.95804 1.04209C9.1238 1.20785 9.21693 1.43267 9.21693 1.66709C9.21693 1.90151 9.1238 2.12633 8.95804 2.2921L4.99968 6.25045L3.33301 6.66712L3.74968 5.00045L7.70803 1.04209Z" stroke="white" stroke-width="0.833338" stroke-linecap="round" stroke-linejoin="round"/>
</svg>
